# xmcd CD database file
#
# Track frame offsets:
#	150
#	10407
#	20455
#	33453
#	45356
#	57039
#	65026
#	75687
#	85945
#	95385
#
# Disc length: 1387 seconds
#
# Revision: 1
# Processed by: cddbd v1.5.2PL0 Copyright (c) Steve Scherf et al.
# Submitted via: CDex 1.70beta2
#
DISCID=7305690a
DTITLE=Danny Davis and the Nashville Brass - Orange Blossom Special
DYEAR=1990
DGENRE=Big Band
TTITLE0=Orange Blossom Special
TTITLE1=Tennessee Waltz
TTITLE2=Yakety Axe
TTITLE3=Great Speckled Bird
TTITLE4=Under The Double Eagle
TTITLE5=Bonaparte's Retreat
TTITLE6=Down Yonder
TTITLE7=Long Gone Lonesome Blues
TTITLE8=Rose Garden
TTITLE9=Steel Guitar Rag
EXTD=YEAR: 1990
EXTT0=
EXTT1=
EXTT2=
EXTT3=
EXTT4=
EXTT5=
EXTT6=
EXTT7=
EXTT8=
EXTT9=
PLAYORDER=
